Coordinates
version=1
nRows=18
nColumns=28
inDegrees=yes

Units are S.I. units (second, meters, Newtons, ...)
Angles are in degrees.

endheader
time	pelvis_tilt	pelvis_list	pelvis_rotation	pelvis_tx	pelvis_ty	pelvis_tz	hip_flexion_r	hip_adduction_r	hip_rotation_r	knee_angle_r	ankle_angle_r	subtalar_angle_r	mtp_angle_r	hip_flexion_l	hip_adduction_l	hip_rotation_l	knee_angle_l	socket_flexion	socket_adduction	socket_rotation	socket_tx	socket_ty	socket_tz	foot_flex	lumbar_extension	lumbar_bending	lumbar_rotation
      0.32500000	      3.15177562	     -3.86527730	     -6.61470088	     -0.42192418	      1.01600543	      0.29389171	     12.07843850	      6.34631457	      4.77052857	    -64.24065346	      2.45764388	    -17.04326125	     25.16382200	     -0.97048194	     -4.61160877	     -6.37377153	     -6.27538949	     -4.38053078	      3.69223115	     15.40232685	      0.00000000	     -0.00969222	      0.00000000	      1.54415117	    -11.83658338	     -0.12656199	      7.38479796
      0.32916667	      3.20014917	     -3.87248466	     -6.54252685	     -0.41732899	      1.01639501	      0.29351699	     12.60819103	      6.41140049	      4.77317120	    -63.94483393	      2.53658234	    -17.01428538	     25.18391090	     -1.31321877	     -4.56946635	     -6.35484860	     -6.29179503	     -4.47224360	      3.68465025	     15.44511088	      0.00000000	     -0.00946598	      0.00000000	      1.58151548	    -11.92462857	     -0.11040099	      7.35927051
      0.33333333	      3.32105072	     -4.15053751	     -6.38938738	     -0.41202605	      1.01684506	      0.29268772	     12.87361735	      6.66596157	      4.65113212	    -63.44568798	      3.66453734	    -15.49332941	     25.78744202	     -2.06604944	     -4.76078770	     -6.41717287	     -5.51878109	     -4.06559046	      3.78466015	     15.65386512	      0.00000000	     -0.00966225	      0.00000000	      1.77803441	    -12.02934623	      0.37976127	      6.68798299
      0.33750000	      3.37489531	     -4.14654729	     -6.30876201	     -0.40752544	      1.01715121	      0.29233901	     13.40280048	      6.72444716	      4.65213917	    -63.13772954	      3.72689338	    -15.50095287	     25.79712075	     -2.39924065	     -4.70974310	     -6.39955086	     -5.54861076	     -4.15360676	      3.78084940	     15.68142304	      0.00000000	     -0.00943301	      0.00000000	      1.81122775	    -12.12175226	      0.36989012	      6.68203209
      0.34166667	      3.38897140	     -4.24909199	     -6.15042983	     -0.40261515	      1.01746820	      0.29189212	     13.82768141	      6.89867769	      4.63909447	    -62.61472230	      4.22643581	    -15.48907649	     25.90900555	     -2.77194921	     -4.78417892	     -6.38762127	     -5.41303006	     -4.12986950	      3.79689371	     15.83041799	      0.00000000	     -0.00927418	      0.00000000	      2.02030393	    -12.11627732	      0.51408666	      6.58214137
      0.34583333	      3.43621216	     -4.25083616	     -6.08334688	     -0.39820055	      1.01763124	      0.29156019	     14.36513278	      6.95183852	      4.63588173	    -62.28169971	      4.28904100	    -15.48403936	     25.91838175	     -3.09735913	     -4.73934463	     -6.37944521	     -5.43189648	     -4.21262949	      3.78638795	     15.86034445	      0.00000000	     -0.00919694	      0.00000000	      2.04679020	    -12.23135090	      0.52531223	      6.56445849
      0.35000000	      3.47284407	     -4.25808924	     -6.01384461	     -0.39374675	      1.01782203	      0.29120008	     14.88079761	      7.00693984	      4.64033248	    -61.87179750	      4.38907940	    -15.47854466	     25.93268483	     -3.41516352	     -4.70087249	     -6.37120837	     -5.44163430	     -4.28009880	      3.77401583	     15.90511930	      0.00000000	     -0.00903550	      0.00000000	      2.10036154	    -12.33061274	      0.54433900	      6.53690862
      0.35416667	      3.49844245	     -4.64072632	     -5.79418805	     -0.38843011	      1.01811702	      0.29051719	     15.12623797	      7.44192235	      4.55020551	    -61.10416875	      5.25762730	    -15.11879722	     26.12573878	     -3.98370990	     -5.06549022	     -6.51296001	     -4.91213097	     -4.02654710	      3.86313728	     16.25246384	      0.00000000	     -0.00929429	      0.00000000	      2.29159981	    -12.30231571	      1.12043871	      6.03808040
      0.35833333	      3.54025189	     -4.62928324	     -5.73978178	     -0.38405521	      1.01819100	      0.29023808	     15.64361089	      7.47383522	      4.55604103	    -60.68766512	      5.30642232	    -15.11297011	     26.12626865	     -4.30028016	     -5.00996310	     -6.49724670	     -4.93081246	     -4.10333912	      3.84191728	     16.27948742	      0.00000000	     -0.00921385	      0.00000000	      2.33897013	    -12.41899044	      1.10234526	      6.02293002
      0.36250000	      3.56443895	     -4.63896946	     -5.58389221	     -0.37929295	      1.01847507	      0.28978057	     16.00681710	      7.53452741	      4.61498439	    -60.00029713	      5.50133910	    -15.08634753	     26.13937802	     -4.63416791	     -4.97728715	     -6.49487306	     -4.87232542	     -4.10580804	      3.83107001	     16.36915902	      0.00000000	     -0.00889764	      0.00000000	      2.50230492	    -12.42639846	      1.13136464	      5.95253520
      0.36666667	      3.69675497	     -4.91045173	     -5.43163833	     -0.37438566	      1.01874636	      0.28925821	     16.22430257	      7.82021244	      4.51311384	    -59.29510045	      6.00005010	    -14.86631028	     26.12603184	     -5.29086611	     -5.21298014	     -6.59060843	     -4.34648377	     -3.87733938	      3.91488324	     16.60206775	      0.00000000	     -0.00907838	      0.00000000	      2.61098273	    -12.59356030	      1.53343546	      5.54981532
      0.37083333	      3.73086327	     -4.89082463	     -5.38315475	     -0.37010239	      1.01869395	      0.28900789	     16.73084814	      7.84001067	      4.52078138	    -58.82601817	      6.05272003	    -14.87212902	     26.11938801	     -5.59261008	     -5.15298058	     -6.57333629	     -4.36524951	     -3.94602011	      3.89683559	     16.62951494	      0.00000000	     -0.00906119	      0.00000000	      2.66420585	    -12.71590513	      1.50747994	      5.54044700
      0.37500000	      3.74198715	     -4.88085557	     -5.22069084	     -0.36536392	      1.01893346	      0.28861417	     17.06095471	      7.87512378	      4.58975536	    -58.02533336	      6.23572434	    -14.89246627	     26.09972260	     -5.90938805	     -5.11294117	     -6.55698277	     -4.30015203	     -3.94754028	      3.88602546	     16.72609736	      0.00000000	     -0.00867009	      0.00000000	      2.83651567	    -12.70631779	      1.50650898	      5.48984708
      0.37916667	      3.75833331	     -4.91654428	     -5.08959365	     -0.36076570	      1.01900439	      0.28825738	     17.43467825	      7.94305007	      4.59742102	    -57.30989427	      6.43889253	    -14.92765871	     26.06989844	     -6.24433186	     -5.12293154	     -6.56109390	     -4.20010800	     -3.93137710	      3.88640708	     16.84397312	      0.00000000	     -0.00854319	      0.00000000	      2.96584910	    -12.75217870	      1.56717875	      5.40442828
      0.38333333	      3.78134937	     -4.99041224	     -4.95171658	     -0.35611056	      1.01905127	      0.28789977	     17.77499599	      8.04904200	      4.59106701	    -56.55669185	      6.66066530	    -14.97603466	     26.01008079	     -6.61777950	     -5.17500332	     -6.57092742	     -4.03968280	     -3.90157166	      3.90018160	     16.99450625	      0.00000000	     -0.00846045	      0.00000000	      3.09339247	    -12.79322589	      1.67406687	      5.27128929
      0.38750000	      3.98477372	     -5.27815156	     -4.81869855	     -0.35141894	      1.01929153	      0.28741358	     17.85988666	      8.35624530	      4.54412178	    -55.70512396	      6.87589553	    -15.09022259	     25.50814286	     -7.38163076	     -5.41566744	     -6.62170945	     -3.38676143	     -3.57807779	      4.01443249	     17.08897092	      0.00000000	     -0.00870161	      0.00000000	      3.17507944	    -13.08790518	      2.08688867	      4.86318074
      0.39166667	      3.98072150	     -5.22111966	     -4.70254006	     -0.34698528	      1.01928808	      0.28712093	     18.24661512	      8.32680567	      4.60557612	    -54.94465337	      6.97597133	    -15.12221388	     25.45823863	     -7.64548891	     -5.33318838	     -6.59796867	     -3.37220152	     -3.59781126	      4.00356190	     17.12539855	      0.00000000	     -0.00847804	      0.00000000	      3.27774820	    -13.13487876	      2.01927486	      4.86606806
      0.39583333	      3.97451937	     -5.18611634	     -4.60267662	     -0.34258692	      1.01920655	      0.28683214	     18.63472809	      8.31796465	      4.63691019	    -54.16712681	      7.09023119	    -15.17197992	     25.40253938	     -7.91429657	     -5.26780698	     -6.57660221	     -3.34052816	     -3.60765601	      3.99167709	     17.19128175	      0.00000000	     -0.00834567	      0.00000000	      3.38386564	    -13.17769613	      1.98333390	      4.84498146
